<svg xmlns="http://www.w3.org/2000/svg" viewBox="0 0 129 129" width="129" height="129"><style>tspan { white-space:pre }.shp0 { fill: #f1f6f5 } .shp1 { fill: #45b5f5 } </style><g ><path class="shp0" d="M0 64.5L0 129L129 129L129 0L0 0L0 64.5Z" /><path class="shp1" d="M56 6.16C54.08 6.76 50.23 9.56 47.44 12.38C43.74 16.13 42.03 18.84 41.04 22.5C40.17 25.7 39.91 29.65 40.32 33.5C40.67 36.8 41.64 40.51 42.48 41.75C43.32 42.99 44 44.23 44 44.5C44 44.77 42.31 44.1 40.25 42.99C37.49 41.52 34.64 40.99 29.5 41.01C24.9 41.03 21.13 41.67 18.5 42.87C16.3 43.88 12.59 46.79 10.25 49.35C7.91 51.91 5.55 55.69 5.01 57.75C4.46 59.81 4.01 63.53 4.01 66C4.01 68.47 4.46 72.19 5.01 74.25C5.55 76.31 7.91 80.09 10.25 82.65C12.59 85.21 16.3 88.12 18.5 89.13C21.09 90.31 24.88 90.96 29.25 90.98C34.03 90.99 37.16 90.42 40 89C42.2 87.9 44 87.22 44 87.5C44 87.78 43.32 89.01 42.48 90.25C41.64 91.49 40.67 95.2 40.32 98.5C39.94 102.07 40.17 106.32 40.87 109C41.53 111.47 43.51 115.26 45.28 117.42C47.05 119.58 50.3 122.5 52.5 123.92C56.04 126.21 57.53 126.5 65.5 126.5C73.47 126.5 74.96 126.21 78.5 123.92C80.7 122.5 83.95 119.58 85.72 117.42C87.49 115.26 89.47 111.47 90.13 109C90.83 106.32 91.06 102.07 90.68 98.5C90.33 95.2 89.36 91.49 88.52 90.25C87.68 89.01 87 87.78 87 87.5C87 87.22 88.69 87.9 90.75 89.01C93.45 90.46 96.39 91.01 101.25 91.01C105.04 91 109.64 90.32 111.75 89.45C113.81 88.6 117.24 86.24 119.37 84.2C121.5 82.17 124.07 78.7 125.1 76.5C126.31 73.89 126.96 70.23 126.96 66C126.96 61.77 126.31 58.11 125.1 55.5C124.07 53.3 121.5 49.83 119.37 47.8C117.24 45.76 113.81 43.4 111.75 42.55C109.69 41.7 105.41 40.99 102.25 40.98C99.09 40.97 94.59 41.64 92.25 42.48C89.91 43.32 88.01 43.89 88.02 43.75C88.02 43.61 88.68 41.7 89.47 39.5C90.26 37.3 90.92 33.25 90.94 30.5C90.95 27.75 90.41 23.76 89.73 21.64C89.06 19.51 87.15 16.17 85.5 14.22C83.85 12.26 80.7 9.53 78.5 8.15C75.33 6.17 72.94 5.59 67 5.36C62.88 5.19 57.92 5.56 56 6.16Z" /><path class="shp0" d="M59.88 8.32C57.34 8.97 53.51 10.9 51.38 12.62C49.25 14.34 46.48 17.71 45.23 20.12C43.67 23.13 42.96 26.22 42.97 30C42.97 34.04 43.71 36.91 45.74 40.82C48.2 45.55 48.34 46.3 47 47.66C45.65 49.04 44.98 48.9 40.5 46.35C36.45 44.04 34.36 43.52 29.5 43.58C25.52 43.64 22.16 44.36 19.5 45.74C17.3 46.88 14.29 49.1 12.8 50.66C11.32 52.22 9.41 55.19 8.55 57.25C7.7 59.31 7 63.25 7 66C7 68.75 7.7 72.69 8.55 74.75C9.41 76.81 11.32 79.78 12.8 81.34C14.29 82.9 17.3 85.12 19.5 86.26C22.24 87.68 25.39 88.34 29.5 88.34C34.2 88.35 36.58 87.75 40.5 85.58C44.7 83.25 45.72 83.02 46.86 84.15C48 85.29 47.79 86.37 45.54 91C43.3 95.6 42.91 97.57 43.18 103.07C43.43 108.2 44.1 110.54 46.25 113.82C47.76 116.12 50.88 119.24 53.18 120.75C56.44 122.89 58.82 123.58 63.93 123.84C68.17 124.06 71.92 123.64 74.5 122.65C76.7 121.81 80.04 119.41 81.92 117.31C83.8 115.22 85.94 112.04 86.67 110.25C87.4 108.46 88 104.64 88 101.75C87.99 97.98 87.22 95.02 85.25 91.23C82.8 86.52 82.66 85.78 84 84.38C85.36 82.95 85.97 83.06 90.5 85.61C94.51 87.86 96.69 88.4 101.5 88.35C105.46 88.3 108.86 87.58 111.5 86.23C113.7 85.1 116.71 82.9 118.2 81.34C119.68 79.78 121.59 76.81 122.45 74.75C123.3 72.69 124 68.75 124 66C124 63.25 123.3 59.31 122.45 57.25C121.59 55.19 119.68 52.22 118.2 50.66C116.71 49.1 113.7 46.9 111.5 45.79C109.07 44.55 105.32 43.71 101.96 43.63C97.69 43.53 95.15 44.14 90.96 46.29C86.15 48.74 85.32 48.9 84 47.6C82.67 46.3 82.81 45.53 85.26 40.82C87.32 36.86 88.02 34.09 88 30C87.98 26.33 87.23 23.02 85.74 20.08C84.51 17.64 82.15 14.54 80.5 13.18C78.85 11.81 76.15 10.15 74.5 9.48C72.85 8.8 69.92 8 68 7.7C66.08 7.39 62.42 7.67 59.88 8.32Z" /><path class="shp1" d="M58.08 15.72C56.2 16.7 53.61 18.85 52.32 20.5C51.04 22.15 49.7 25.3 49.36 27.5C49.02 29.7 49.24 33.08 49.85 35C50.46 36.92 52.55 40.08 54.5 42L58.04 45.5C36.74 66.77 30.71 72.02 29.5 72.04C28.4 72.05 26.78 71.26 25.9 70.28C25.02 69.3 24.01 67.71 23.65 66.75C23.24 65.63 23.87 64.01 25.41 62.25C27.72 59.6 27.95 59.55 31.66 60.84C35.36 62.13 35.61 62.08 38.37 59.34C39.95 57.78 41.03 55.83 40.78 55C40.52 54.17 38.67 52.71 36.66 51.75C34.64 50.79 31.09 49.99 28.75 49.97C25.95 49.95 23.33 50.72 21.09 52.22C19.22 53.47 16.74 55.77 15.59 57.32C14.03 59.43 13.5 61.63 13.5 66C13.5 70.37 14.03 72.57 15.59 74.68C16.74 76.23 19.22 78.53 21.09 79.78C23.33 81.28 25.95 82.05 28.75 82.03C31.09 82.01 34.24 81.52 35.75 80.94C37.26 80.35 39.94 78.44 41.7 76.69L44.9 73.5C63.19 91.14 69.06 97.1 69.75 98.13C70.44 99.16 70.89 101.22 70.75 102.72C70.59 104.43 69.53 106 67.87 106.97C65.44 108.38 65.02 108.34 62.46 106.5C59.92 104.66 59.75 104.14 60.37 100C60.99 95.9 60.78 95.24 58.04 92.5L55.03 89.5C51.85 92.6 50.43 95.08 49.83 97C49.23 98.92 49.02 102.3 49.36 104.5C49.7 106.7 51.03 109.85 52.32 111.5C53.6 113.15 56.31 115.29 58.33 116.25C60.35 117.21 63.58 118 65.5 118C67.42 118 70.46 117.41 72.25 116.69C74.04 115.97 76.72 113.83 78.21 111.94C79.69 110.05 81.21 107.15 81.57 105.5C81.94 103.85 81.96 100.81 81.62 98.75C81.21 96.3 79.61 93.52 77.01 90.75L73.02 86.5C92.47 67.13 98.88 61.11 99.81 60.64C100.74 60.17 102.4 60.02 103.5 60.32C104.6 60.62 106.06 62.02 106.75 63.43C107.75 65.49 107.75 66.51 106.75 68.57C106.06 69.98 104.38 71.38 103 71.68C101.63 71.98 99.47 71.61 98.22 70.86C96.14 69.62 95.66 69.77 92.84 72.5C91.15 74.15 89.97 76.17 90.22 77C90.48 77.83 92.33 79.29 94.34 80.25C96.36 81.21 99.91 82.01 102.25 82.03C105.05 82.05 107.67 81.28 109.91 79.78C111.78 78.53 114.26 76.23 115.41 74.68C116.97 72.57 117.5 70.37 117.5 66C117.5 61.63 116.97 59.43 115.41 57.32C114.26 55.77 111.78 53.47 109.91 52.22C107.67 50.72 105.05 49.95 102.25 49.97C99.91 49.99 96.88 50.45 95.5 51C94.13 51.55 91.41 53.46 89.47 55.25L85.95 58.5C70.1 43.19 64.26 37.45 62.75 35.87C61 34.04 60 31.91 60 30C60 28 60.75 26.5 62.25 25.49C63.49 24.66 65.17 23.97 66 23.96C66.83 23.95 68.28 24.74 69.22 25.72C70.17 26.7 70.97 28.63 70.99 30C71.01 31.38 70.46 33.07 69.77 33.77C68.74 34.79 69.21 35.75 72.19 38.77C75.54 42.15 76.04 42.36 77.6 41C78.54 40.17 79.92 38.04 80.65 36.25C81.39 34.46 81.99 31.54 81.98 29.75C81.97 27.96 80.96 24.74 79.73 22.59C78.51 20.45 76.22 17.75 74.66 16.59C72.84 15.25 69.97 14.4 66.66 14.22C63.19 14.02 60.38 14.52 58.08 15.72Z" /><path class="shp0" d="M58.47 60L52.5 66C61.8 75.32 64.84 78.02 65.25 78.01C65.66 78 68.81 75.31 72.25 72.02L78.5 66.05C68.81 56.71 65.65 54 65.22 54C64.79 54 61.75 56.7 58.47 60Z" /></g></svg>