<svg xmlns="http://www.w3.org/2000/svg" viewBox="0 0 129 129" width="129" height="129"><style>tspan { white-space:pre }.shp0 { fill: #46b7f5 } </style><path fill-rule="evenodd" class="shp0" d="M65.5 5.04C70.15 5.04 73.84 5.66 76.5 6.87C78.7 7.88 82.33 10.68 84.57 13.1C86.81 15.52 89.23 19.3 89.96 21.5C90.79 24.04 91.08 28.05 90.76 32.5C90.47 36.35 89.85 40.39 89.37 41.47C88.62 43.18 88.78 43.34 90.5 42.63C91.6 42.18 94.97 41.57 98 41.27C101.03 40.98 105.75 41.07 108.5 41.49C112.87 42.14 114.27 43.01 119.58 48.37C123.8 52.63 125.87 55.57 126.34 58C126.72 59.92 127.02 63.52 127.02 66C127.02 68.47 126.72 72.08 126.34 74C125.87 76.43 123.8 79.37 119.58 83.63C114.26 89 112.88 89.86 108.5 90.51C105.75 90.92 101.03 91.03 98 90.77C94.97 90.5 91.62 89.88 90.54 89.39C88.8 88.59 88.68 88.77 89.41 91C89.86 92.38 90.46 96.88 90.74 101C91.14 106.96 90.87 109.22 89.45 112C88.47 113.92 85.6 117.66 83.08 120.31C80.35 123.17 77.09 125.49 75 126.05C73.08 126.57 68.8 126.99 65.5 126.99C62.2 126.99 57.92 126.57 56 126.05C53.91 125.49 50.65 123.17 47.92 120.31C45.4 117.66 42.53 113.92 41.55 112C40.13 109.22 39.86 106.96 40.26 101C40.54 96.88 41.14 92.38 41.59 91C42.32 88.77 42.2 88.59 40.46 89.39C39.38 89.88 36.02 90.5 33 90.77C29.98 91.03 25.48 90.98 23 90.66C19.5 90.19 17.3 89 13.12 85.28C10.16 82.65 6.9 78.81 5.87 76.75C4.58 74.16 4 70.83 4 66C4 61.17 4.58 57.84 5.87 55.25C6.9 53.19 10.16 49.35 13.12 46.72C17.3 43 19.5 41.81 23 41.34C25.48 41.02 29.98 40.97 33 41.23C36.02 41.5 39.38 42.12 40.46 42.61C42.2 43.4 42.32 43.23 41.6 41C41.15 39.63 40.55 35.58 40.27 32C39.98 28.42 40.23 23.93 40.83 22C41.43 20.07 43.85 16.29 46.21 13.58C48.57 10.87 52.3 7.85 54.5 6.85C57.13 5.66 60.89 5.04 65.5 5.04ZM52.75 12.26C51.24 13.22 48.77 15.91 47.27 18.25C45.77 20.59 44.25 24.07 43.9 26C43.55 27.93 43.62 31.3 44.06 33.5C44.49 35.7 45.67 39.62 46.67 42.21C48.12 45.94 48.24 47.2 47.28 48.21C46.28 49.26 44.96 48.98 40.28 46.78C37.02 45.24 32.76 44.05 30.5 44.04C28.3 44.04 24.75 44.59 22.61 45.27C20.46 45.94 17.09 47.88 15.11 49.58C13.12 51.27 10.65 54.42 9.62 56.58C8.48 58.95 7.74 62.68 7.74 66C7.74 69.32 8.48 73.05 9.62 75.42C10.65 77.58 13.3 80.84 15.5 82.67C17.88 84.65 21.53 86.45 24.5 87.12C27.25 87.74 31.07 87.98 33 87.65C34.92 87.33 38.52 86.11 41 84.95C43.48 83.8 46.06 83.11 46.75 83.42C47.44 83.74 48 84.45 48 85C48 85.55 47.05 88.36 45.89 91.25C44.53 94.66 43.83 98.52 43.89 102.25C43.96 105.73 44.75 109.48 45.9 111.75C46.95 113.81 48.86 116.46 50.15 117.63C51.44 118.81 54.08 120.55 56 121.5C58.67 122.83 61.32 123.15 67.16 122.87C73.93 122.54 75.26 122.14 78.66 119.41C80.77 117.71 83.51 114.56 84.74 112.41C86.26 109.76 87.02 106.72 87.09 103C87.15 99.55 86.41 95.55 85.09 92.25C83.94 89.36 83 86.33 83 85.5C83 84.67 83.56 83.74 84.25 83.42C84.94 83.11 87.53 83.8 90 84.95C92.47 86.11 96.08 87.33 98 87.65C99.92 87.98 103.75 87.74 106.5 87.12C109.47 86.45 113.12 84.65 115.5 82.67C117.7 80.84 120.35 77.58 121.38 75.42C122.52 73.05 123.26 69.32 123.26 66C123.26 62.68 122.52 58.95 121.38 56.58C120.35 54.42 117.7 51.16 115.5 49.34C113.3 47.52 109.59 45.57 107.25 45.01C104.91 44.46 101.76 43.99 100.25 43.97C98.74 43.96 94.91 45.09 91.75 46.47C88.59 47.86 85.33 48.77 84.5 48.5C83.67 48.23 83.01 47.21 83.02 46.25C83.03 45.29 83.97 42.48 85.11 40C86.36 37.26 87.18 33.35 87.21 30C87.23 26.7 86.55 23.1 85.51 21C84.55 19.07 82.81 16.44 81.63 15.15C80.46 13.86 77.7 11.9 75.5 10.79C73.3 9.69 69.47 8.6 67 8.38C64.53 8.16 60.92 8.55 59 9.25C57.08 9.95 54.26 11.31 52.75 12.26ZM67.19 14.26C72.18 14.47 73.31 14.93 76.46 18C78.43 19.93 80.54 23.07 81.15 25C81.76 26.93 82 30.52 81.68 33C81.3 35.98 80.25 38.34 75.99 42.5L72.25 38.79C68.91 35.49 68.63 34.82 69.66 32.79C70.55 31.04 70.55 29.91 69.64 28C68.93 26.5 67.46 25.39 65.97 25.22C64.61 25.06 62.92 25.51 62.21 26.22C61.49 26.92 60.93 28.74 60.96 30.25C60.99 32.19 62.7 34.81 66.75 39.11C69.91 42.47 75.54 47.87 86 57L88.63 55.25C90.07 54.29 92.43 52.69 93.88 51.7C95.87 50.33 98 49.97 102.73 50.2C108.56 50.48 109.23 50.77 113.23 54.76C117.44 58.97 117.5 59.13 117.5 66C117.5 72.87 117.44 73.03 113.23 77.24C109.32 81.13 108.46 81.53 103.23 81.8C99.18 82.02 96.47 81.58 94 80.3C92.08 79.31 90.37 77.83 90.2 77C90.04 76.17 90.93 74.21 92.2 72.64C94.31 70.02 94.87 69.84 99 70.47C102.82 71.04 103.8 70.83 105.5 69.02C107.14 67.27 107.32 66.41 106.48 64.2C105.74 62.22 104.67 61.42 102.48 61.22C99.85 60.96 97.99 62.44 73.91 86.5L77.7 90.96C80.93 94.75 81.55 96.25 81.84 100.96C82.12 105.5 81.75 107.13 79.79 110C78.48 111.92 75.85 114.55 73.95 115.84C71.12 117.75 69.48 118.12 64.83 117.84C61.07 117.61 58.22 116.8 56.33 115.41C54.78 114.26 52.47 111.78 51.22 109.91C49.63 107.53 48.95 105.06 48.97 101.75C48.99 98.23 49.71 95.97 51.75 93.02C53.26 90.83 54.84 89.03 55.25 89.02C55.66 89.01 57.13 90.35 58.5 92C60.46 94.35 60.95 95.94 60.75 99.36C60.59 102.12 61.05 104.33 62 105.4C62.83 106.33 64.51 107.07 65.75 107.04C66.99 107.02 68.45 106.1 69 105C69.55 103.9 69.99 101.99 69.99 100.75C69.98 99.2 66.22 94.82 57.99 86.75C51.39 80.29 45.55 75 45 75C44.45 75 42.09 76.62 39.75 78.61C35.64 82.1 35.27 82.21 28.77 81.86C22.37 81.52 21.83 81.29 17.77 77.22C14.02 73.47 13.45 72.3 13.12 67.72C12.88 64.33 13.29 61.45 14.28 59.5C15.13 57.85 17.25 55.15 18.99 53.5C21.61 51.01 23.12 50.45 27.82 50.2C31.82 49.98 34.53 50.42 37 51.7C38.92 52.69 40.63 54.17 40.8 55C40.96 55.83 40.18 57.74 39.05 59.25C37.16 61.78 36.63 61.95 32.25 61.35C27.87 60.74 27.36 60.9 25.75 63.35C24.44 65.33 24.25 66.5 25 68C25.55 69.1 26.9 70.45 28 71C29.74 71.87 31.76 70.28 57.18 45.5L53.08 40.5C49.56 36.2 48.99 34.83 48.99 30.75C49 28.14 49.63 24.76 50.4 23.25C51.18 21.74 52.87 19.51 54.15 18.31C55.44 17.11 57.63 15.65 59 15.07C60.38 14.49 64.06 14.13 67.19 14.26ZM53.78 65.73C53.89 66.15 56.34 68.9 59.24 71.84C63.72 76.38 64.8 77.03 66.5 76.17C67.6 75.61 70.53 73.07 73 70.53L77.5 65.9C68.59 57.45 65.65 55 65.22 55C64.8 55 62.01 57.24 59.02 59.98C56.03 62.72 53.68 65.3 53.78 65.73Z" /></svg>